<svg xmlns="http://www.w3.org/2000/svg" xmlns:xlink="http://www.w3.org/1999/xlink" width="640" zoomAndPan="magnify" viewBox="0 0 480 157.5" height="210" preserveAspectRatio="xMidYMid meet" version="1.0"><defs><g/><clipPath id="d130065520"><path d="M 259.265625 12.050781 L 471.949219 12.050781 L 471.949219 150 L 259.265625 150 Z M 259.265625 12.050781 " clip-rule="nonzero"/></clipPath><clipPath id="b105046939"><path d="M 266.742188 12.050781 L 463.992188 12.050781 C 465.976562 12.050781 467.878906 12.835938 469.28125 14.238281 C 470.683594 15.640625 471.46875 17.542969 471.46875 19.527344 L 471.46875 141.988281 C 471.46875 143.96875 470.683594 145.871094 469.28125 147.273438 C 467.878906 148.675781 465.976562 149.464844 463.992188 149.464844 L 266.742188 149.464844 C 264.761719 149.464844 262.859375 148.675781 261.457031 147.273438 C 260.054688 145.871094 259.265625 143.96875 259.265625 141.988281 L 259.265625 19.527344 C 259.265625 17.542969 260.054688 15.640625 261.457031 14.238281 C 262.859375 12.835938 264.761719 12.050781 266.742188 12.050781 " clip-rule="nonzero"/></clipPath></defs><g fill="#ffffff" fill-opacity="1"><g transform="translate(0.787993, 117.509854)"><g><path d="M 59.265625 -83.546875 L 74.9375 -83.546875 L 74.9375 0 L 58.015625 0 L 24.453125 -54.484375 L 24.453125 0 L 8.78125 0 L 8.78125 -83.546875 L 25.140625 -83.546875 L 59.265625 -27.75 Z M 59.265625 -83.546875 "/></g></g></g><g fill="#ffffff" fill-opacity="1"><g transform="translate(84.497371, 117.509854)"><g><path d="M 7.921875 -68.734375 L 7.921875 -83.546875 L 23.9375 -83.546875 L 23.9375 -68.734375 Z M 7.921875 0 L 7.921875 -60.46875 L 23.9375 -60.46875 L 23.9375 0 Z M 7.921875 0 "/></g></g></g><g fill="#ffffff" fill-opacity="1"><g transform="translate(116.351391, 117.509854)"><g><path d="M 33.21875 -49.0625 C 29.082031 -49.0625 25.910156 -47.398438 23.703125 -44.078125 C 21.503906 -40.753906 20.40625 -36.128906 20.40625 -30.203125 C 20.40625 -24.660156 21.503906 -20.1875 23.703125 -16.78125 C 25.910156 -13.382812 29.179688 -11.6875 33.515625 -11.6875 C 36.515625 -11.6875 38.992188 -12.679688 40.953125 -14.671875 C 42.910156 -16.671875 44.191406 -19.53125 44.796875 -23.25 L 60.53125 -20.515625 C 58.851562 -13.066406 55.707031 -7.546875 51.09375 -3.953125 C 46.476562 -0.367188 40.351562 1.421875 32.71875 1.421875 C 26.519531 1.421875 21.265625 0.046875 16.953125 -2.703125 C 12.640625 -5.460938 9.398438 -9.222656 7.234375 -13.984375 C 5.066406 -18.753906 3.984375 -24.179688 3.984375 -30.265625 C 3.984375 -36.535156 5.101562 -42.039062 7.34375 -46.78125 C 9.59375 -51.53125 12.898438 -55.222656 17.265625 -57.859375 C 21.640625 -60.503906 26.921875 -61.828125 33.109375 -61.828125 C 40.023438 -61.828125 45.757812 -60.234375 50.3125 -57.046875 C 54.875 -53.859375 57.992188 -48.957031 59.671875 -42.34375 L 44 -39.5 C 43.351562 -42.613281 42.109375 -44.984375 40.265625 -46.609375 C 38.421875 -48.242188 36.070312 -49.0625 33.21875 -49.0625 Z M 33.21875 -49.0625 "/></g></g></g><g fill="#ffffff" fill-opacity="1"><g transform="translate(180.572271, 117.509854)"><g><path d="M 43.03125 -60.46875 L 62.46875 -60.46875 L 41.78125 -38.40625 L 63.828125 0 L 45.703125 0 L 30.890625 -27.296875 L 23.9375 -19.953125 L 23.9375 0 L 7.921875 0 L 7.921875 -83.546875 L 23.9375 -83.546875 L 23.9375 -39.203125 Z M 43.03125 -60.46875 "/></g></g></g><g clip-path="url(#d130065520)"><g clip-path="url(#b105046939)"><path fill="#f8981f" d="M 259.265625 12.050781 L 471.289062 12.050781 L 471.289062 149.433594 L 259.265625 149.433594 Z M 259.265625 12.050781 " fill-opacity="1" fill-rule="nonzero"/></g></g><g fill="#000000" fill-opacity="1"><g transform="translate(266.922235, 117.510018)"><g><path d="M 41.265625 -61.84375 C 47.921875 -61.84375 53.015625 -60.066406 56.546875 -56.515625 C 60.078125 -52.960938 61.84375 -47.972656 61.84375 -41.546875 L 61.84375 0 L 45.828125 0 L 45.828125 -37.796875 C 45.828125 -41.671875 45.101562 -44.601562 43.65625 -46.59375 C 42.21875 -48.59375 39.804688 -49.59375 36.421875 -49.59375 C 35.203125 -49.59375 33.898438 -49.363281 32.515625 -48.90625 C 31.128906 -48.445312 29.941406 -47.78125 28.953125 -46.90625 C 27.773438 -45.914062 26.832031 -44.890625 26.125 -43.828125 C 25.425781 -42.765625 24.882812 -41.40625 24.5 -39.75 C 24.125 -38.101562 23.9375 -36.023438 23.9375 -33.515625 L 23.9375 0 L 7.921875 0 L 7.921875 -83.5625 L 23.9375 -83.5625 L 23.9375 -53.8125 C 26.101562 -56.507812 28.734375 -58.519531 31.828125 -59.84375 C 34.929688 -61.175781 38.078125 -61.84375 41.265625 -61.84375 Z M 41.265625 -61.84375 "/></g></g></g><g fill="#000000" fill-opacity="1"><g transform="translate(330.566006, 117.510018)"><g><path d="M 33.109375 -10.828125 C 35.085938 -10.828125 37.015625 -11.289062 38.890625 -12.21875 C 40.773438 -13.15625 42.351562 -14.820312 43.625 -17.21875 C 44.90625 -19.613281 45.546875 -22.820312 45.546875 -26.84375 L 45.546875 -60.46875 L 61.5625 -60.46875 L 61.5625 0 L 46.625 0 L 46.625 -7.921875 C 44.5 -4.921875 41.847656 -2.613281 38.671875 -1 C 35.503906 0.613281 32.035156 1.421875 28.265625 1.421875 C 21.546875 1.421875 16.425781 -0.363281 12.90625 -3.9375 C 9.394531 -7.507812 7.640625 -12.523438 7.640625 -18.984375 L 7.640625 -60.46875 L 23.65625 -60.46875 L 23.65625 -22.6875 C 23.65625 -18.65625 24.414062 -15.671875 25.9375 -13.734375 C 27.457031 -11.796875 29.847656 -10.828125 33.109375 -10.828125 Z M 33.109375 -10.828125 "/></g></g></g><g fill="#000000" fill-opacity="1"><g transform="translate(394.209776, 117.510018)"><g><path d="M 24.171875 -53.6875 C 28.878906 -59.125 34.726562 -61.84375 41.71875 -61.84375 C 46.695312 -61.84375 51.132812 -60.597656 55.03125 -58.109375 C 58.925781 -55.617188 61.96875 -52.035156 64.15625 -47.359375 C 66.34375 -42.691406 67.4375 -37.1875 67.4375 -30.84375 C 67.4375 -24.34375 66.320312 -18.648438 64.09375 -13.765625 C 61.875 -8.878906 58.828125 -5.125 54.953125 -2.5 C 51.078125 0.113281 46.722656 1.421875 41.890625 1.421875 C 37.671875 1.421875 34.070312 0.703125 31.09375 -0.734375 C 28.113281 -2.179688 25.441406 -4.597656 23.078125 -7.984375 L 22.859375 -7.984375 L 22.859375 0 L 7.921875 0 L 7.921875 -83.5625 L 23.9375 -83.5625 L 23.9375 -53.6875 Z M 37.390625 -49.078125 C 34.734375 -49.078125 32.378906 -48.390625 30.328125 -47.015625 C 28.273438 -45.648438 26.675781 -43.644531 25.53125 -41 C 24.394531 -38.363281 23.828125 -35.203125 23.828125 -31.515625 C 23.828125 -24.910156 25.078125 -19.894531 27.578125 -16.46875 C 30.085938 -13.050781 33.566406 -11.34375 38.015625 -11.34375 C 40.640625 -11.34375 42.929688 -12.0625 44.890625 -13.5 C 46.847656 -14.945312 48.359375 -17.078125 49.421875 -19.890625 C 50.484375 -22.703125 51.015625 -26.082031 51.015625 -30.03125 C 51.015625 -36.15625 49.851562 -40.859375 47.53125 -44.140625 C 45.21875 -47.429688 41.835938 -49.078125 37.390625 -49.078125 Z M 37.390625 -49.078125 "/></g></g></g></svg>